<svg width="1560" height="958" xmlns="http://www.w3.org/2000/svg" xmlns:xlink="http://www.w3.org/1999/xlink" xml:space="preserve" overflow="hidden"><defs><clipPath id="clip0"><rect x="169" y="61" width="1560" height="958"/></clipPath></defs><g clip-path="url(#clip0)" transform="translate(-169 -61)"><path d="M1416.52 461.135C1416.52 461.135 1518.28 377.326 1475.82 271.817 1433.35 166.308 1344.12 207.09 1344.12 207.09 1344.12 207.09 1389.02 58.7409 1265.17 34.4214 1189.41 19.4556 1129.17 113.366 1129.17 113.366 1129.17 113.366 1112.15 5.61219 1008.51 0.374146 904.871-4.86389 872.508 104.012 872.508 104.012 872.508 104.012 832.848-11.5985 725.843 0.935364 646.15 10.289 609.483 105.883 609.483 105.883 609.483 105.883 573.752-12.1597 464.502 1.12244 355.251 14.4046 350.949 117.856 350.949 117.856 350.949 117.856 303.432 0.561219 204.096 45.0846 114.863 84.9311 139.369 210.457 139.369 210.457 139.369 210.457 35.7309 186.137 7.10877 290.524-21.5134 394.911 75.7645 464.876 75.7645 464.876 75.7645 464.876-37.4146 542.137 12.908 663.173 42.2785 733.7 144.607 722.288 144.607 722.288 144.607 722.288 127.584 832.287 201.103 882.61 293.33 945.84 356.748 818.257 356.748 818.257 356.748 818.257 389.299 928.068 483.583 934.99 581.609 942.099 619.959 827.61 619.959 827.61 619.959 827.61 641.66 928.442 759.329 928.442 855.858 928.255 876.623 822.372 876.623 822.372 876.623 822.372 904.497 933.868 1020.67 933.493 1105.97 933.306 1135.16 813.767 1135.16 813.767 1135.16 813.767 1190.53 928.817 1301.47 877.185 1383.96 838.835 1348.05 716.489 1348.05 716.489 1348.05 716.489 1436.91 764.567 1478.44 657.748 1519.97 550.93 1416.52 461.135 1416.52 461.135Z" fill="#FFFFFF" transform="matrix(1.00088 0 0 1 207.068 73.1597)"/></g></svg>