<svg width="432" height="518" xmlns="http://www.w3.org/2000/svg" xmlns:xlink="http://www.w3.org/1999/xlink" xml:space="preserve" overflow="hidden"><defs><clipPath id="clip0"><rect x="1435" y="501" width="432" height="518"/></clipPath></defs><g clip-path="url(#clip0)" transform="translate(-1435 -501)"><path d="M244.435 59.5027C246.857 63.5046 250.122 69.2969 253.492 76.5636 257.389 84.9888 263.497 99.9434 268.868 128.062 270.132 134.381 273.291 152.179 275.187 179.772 276.872 204.837 276.661 226.426 276.451 247.91 276.24 268.447 275.608 284.454 280.242 306.676 283.507 322.052 287.087 330.266 294.143 336.585 304.569 345.958 317.944 346.801 323.526 347.222 336.269 348.275 345.853 344.694 351.75 342.377 376.394 332.899 390.085 313.311 396.509 303.938 403.776 293.406 408.831 282.559 411.99 275.713 415.782 267.499 418.52 260.337 420.31 255.072 422.838 269.5 425.681 298.145 414.834 331.214 410.305 344.905 400.932 367.126 381.238 388.4 375.341 394.824 348.486 423.891 323.631 427.682 313.311 429.262 303.727 434.317 293.406 436.529 291.51 436.95 287.93 437.687 285.718 440.53 282.453 444.743 283.717 450.851 285.086 457.486 287.403 468.228 290.457 468.439 290.247 474.652 290.141 476.864 289.72 485.394 283.085 492.345 282.664 492.766 273.712 501.824 262.128 500.138 260.653 499.928 253.071 498.769 251.596 494.241 250.543 491.081 253.492 489.186 256.546 482.024 258.758 476.864 262.338 468.544 258.968 462.12 256.757 457.802 252.228 455.906 250.227 455.064 243.698 452.326 237.484 453.589 235.483 454.011 234.325 454.221 217.474 455.169 183.879 457.065 163.237 458.223 159.025 457.065 143.228 459.487 135.434 460.646 129.01 462.12 124.692 463.173 120.901 465.279 116.057 468.86 114.477 474.442 113.213 479.076 115.214 481.498 115.214 488.449 115.214 492.451 115.319 499.717 111.317 505.299 105.104 513.935 90.7811 515.83 81.3028 511.302 79.5124 510.459 73.1936 507.405 72.5617 501.718 72.0351 497.4 75.2999 493.82 75.7211 493.398 79.1965 489.712 82.7772 490.976 86.3579 488.449 87.411 487.711 91.5183 484.552 92.0449 471.493 92.5714 456.117 87.411 444.111 87.3057 443.901 84.5675 437.476 79.7231 399.458 70.2448 323.21 68.0331 305.939 65.1897 282.348 62.0302 254.019 52.5519 254.334 45.0746 252.86 40.1248 251.491 31.489 249.069 19.0619 245.699 14.2175 235.378 13.6909 234.219 10.0049 226.11 13.9015 221.055 16.745 217.369 22.2214 217.264 23.6958 217.264 30.5412 217.158 34.5431 221.16 41.0726 224.952 45.7065 227.69 52.7626 230.849 62.5568 232.534 65.1897 231.165 68.5597 228.848 70.5607 224.846 75.2999 215.684 70.4554 202.414 61.293 197.991 57.8177 196.306 54.3423 196.201 52.0254 196.412 47.9181 196.833 35.2803 197.465 22.6426 189.355 19.1672 187.144 10.5314 180.93 5.58167 169.556 4.63384 167.239 3.26475 161.868 2.94881 141.648 2.52755 117.847 6.95076 100.575 9.89956 89.3067 12.8484 78.038 14.8493 74.4573 16.2184 72.1404 18.8513 68.0331 24.7489 61.5037 40.6514 52.7626 45.7065 50.0244 56.9751 44.3374 82.5666 40.4408 104.261 37.176 121.112 37.3866 129.116 37.492 151.969 37.9132 182.299 38.861 218.738 41.0726 224.636 44.2321 230.533 47.2862 236.431 50.4456L236.431 50.4456 236.431 50.4456" fill="#FABB88" transform="matrix(1 0 0 1.00126 1435.21 501.706)"/><path d="M101.944 38.5451 101.944 38.5451C106.684 27.4871 111.423 16.4291 116.267 5.26572 118.268 7.47733 120.48 10.1102 122.481 13.2696 127.852 21.5895 130.063 29.804 130.906 35.491 136.593 35.491 142.28 35.491 147.967 35.491 153.864 25.3808 159.762 15.2706 165.765 5.16041 168.714 8.21453 171.979 11.9005 175.033 16.4291 180.614 24.7489 183.774 32.6475 185.564 38.7557 190.303 39.0717 195.042 39.3876 199.782 39.5982 201.361 34.2272 203.573 28.2243 206.416 21.9054 209.786 14.3228 213.472 7.89859 217.053 2.52755 219.265 8.31984 221.476 15.2706 223.056 23.2745 224.53 30.7518 225.268 37.492 225.584 43.3896 228.322 45.0746 231.165 46.7596 233.903 48.3393 239.696 47.9181 246.12 47.8128 253.176 48.234 269.394 49.0765 271.817 48.8659 272.764 50.4456 275.819 55.606 262.233 68.7704 255.493 75.0892 256.862 79.6177 258.231 84.041 259.6 88.5695 263.602 89.2014 269.289 90.0439 276.135 91.3077 290.352 93.8352 293.09 94.8883 293.511 96.784 294.143 99.4169 289.931 102.471 284.033 106.684 277.082 111.633 270.869 114.898 266.656 116.794 267.604 121.217 268.447 125.64 269.394 129.958 280.874 132.591 292.353 135.224 303.832 137.962 299.83 142.49 294.565 147.546 287.824 152.495 282.875 156.181 278.136 159.025 273.923 161.342 274.765 166.397 275.608 171.452 276.451 176.612 286.561 179.456 296.776 182.299 306.886 185.143 304.043 188.197 300.462 191.567 296.144 194.937 289.509 199.992 283.191 203.468 277.925 205.89 277.293 210.313 276.556 214.736 275.924 219.265 285.823 222.319 295.723 225.268 305.517 228.322 295.828 234.957 286.245 241.486 276.556 248.121 276.556 252.228 276.451 256.335 276.451 260.548 286.982 265.077 297.513 269.71 308.045 274.239 298.461 281.611 288.878 288.983 279.294 296.25 280.137 300.673 280.979 305.096 281.822 309.519 291.932 307.518 302.042 305.623 312.047 303.622 308.677 315.628 305.307 327.739 301.937 339.745 307.308 342.167 312.679 344.484 318.155 346.906 323.631 335.321 329.108 323.631 334.584 312.047 337.217 315.417 340.166 319.84 342.904 325.211 345.958 331.319 347.748 337.006 348.802 341.535 353.014 339.639 357.227 337.744 361.334 335.953 362.176 324.263 363.019 312.573 363.756 300.883 367.337 302.358 371.339 304.254 375.657 306.781 380.08 309.414 383.766 312.257 386.82 314.785 390.506 310.256 394.192 305.728 397.878 301.305 394.613 291.3 391.454 281.295 388.189 271.185 392.823 271.817 397.878 272.659 403.144 274.028 405.777 274.66 408.41 275.503 410.726 276.24 408.936 280.768 406.409 287.193 402.933 294.881 399.458 302.568 397.667 306.465 395.667 309.625 392.928 313.942 389.874 317.313 375.341 328.897 361.966 339.534 355.226 344.905 351.224 346.169 347.011 347.538 339.323 347.748 324.053 348.38 312.152 348.802 310.046 348.38 308.571 347.959 297.935 345.116 291.932 335.637 288.351 329.95 283.296 321.841 279.926 312.889 276.661 290.773 273.607 270.132 272.87 254.124 272.764 249.911 271.606 218.633 274.555 215.789 273.08 189.566 272.027 170.925 269.71 156.603 267.709 145.123 266.34 137.33 262.97 118.479 256.02 94.6777 246.962 63.9259 241.591 58.0283 238.221 54.8688 229.059 46.4437 218.212 43.9161 206.943 42.1258 188.302 39.0717 157.129 36.0176 114.266 40.7567M139.331 216.948C134.276 219.897 127.325 224.846 121.006 232.64 118.689 235.483 111.528 244.961 105.946 270.974 104.156 279.399 101.102 295.618 100.997 317.839 100.891 333.11 100.997 349.433 106.894 369.443 112.897 389.558 120.164 397.562 122.375 399.879 126.483 404.197 134.276 412.201 147.124 414.412 150.6 415.044 162.395 416.624 173.664 409.884 178.613 406.935 185.775 400.932 191.778 384.398 195.358 374.604 198.412 361.439 195.885 320.893 194.516 299.83 192.199 279.189 185.248 255.598 181.246 242.013 177.666 234.009 170.083 227.479 159.025 218.106 145.755 216.948 139.331 216.948Z" fill="#CED8FF" transform="matrix(1 0 0 1.00126 1435.21 501.706)"/><path d="M32.6475 124.376C34.4378 126.588 35.3857 130.59 33.2794 133.118 30.6465 136.277 25.5914 134.803 25.2755 134.697 24.6436 134.487 20.431 133.118 19.6938 129.01 19.0619 125.64 21.1682 123.113 21.4842 122.691 25.5914 120.69 30.3306 121.428 32.6475 124.376ZM151.126 122.691C150.705 122.902 147.651 124.376 146.914 127.746 146.176 130.906 147.756 134.908 151.126 135.961 153.864 136.909 156.919 135.54 158.498 133.328 160.078 131.222 160.394 128.168 159.025 125.745 157.445 123.113 154.18 121.849 151.126 122.691Z" fill="#FDD2F5" transform="matrix(1 0 0 1.00126 1435.21 501.706)"/><path d="M74.7733 141.648C74.7733 141.859 74.668 142.175 74.4573 142.49 71.5085 149.02 68.665 155.444 65.7162 161.974 61.293 154.812 56.8698 147.756 52.4466 140.595 67.0853 139.752 74.4573 140.068 74.7733 141.648ZM100.575 140.174C104.893 147.124 109.211 153.97 113.634 160.921 115.846 157.972 118.163 154.496 120.269 150.494 121.954 147.44 123.323 144.491 124.482 141.753 116.478 141.227 108.474 140.7 100.575 140.174Z" fill="#FFFFFF" transform="matrix(1 0 0 1.00126 1435.21 501.706)"/><path d="M215.368 43.2842C231.797 46.0224 243.066 59.1867 249.49 73.8254 256.546 89.9386 260.548 107.842 264.55 124.903 268.973 143.544 271.711 162.395 272.659 181.562 273.502 199.887 273.08 218.106 273.08 236.431 273.08 254.966 273.396 273.607 275.819 292.037 277.609 305.833 280.452 320.367 288.351 332.162 305.412 357.648 340.587 353.435 363.967 339.745 394.929 321.63 411.042 288.246 422.838 255.809 421.153 255.809 419.468 255.809 417.783 255.809 425.786 301.937 412.096 350.908 380.396 385.556 365.968 401.353 348.275 414.097 328.686 422.838 318.998 427.156 308.887 430.315 298.567 432.632 289.615 434.633 282.875 438.424 282.032 448.324 280.979 459.487 289.825 469.492 287.193 480.55 285.086 489.291 276.766 496.137 268.025 497.611 262.549 498.453 251.491 497.295 255.598 488.554 257.915 483.499 261.391 479.918 262.549 474.231 264.234 466.017 261.601 457.591 253.703 453.8 244.33 449.272 231.902 451.904 222.003 452.431 208.417 453.274 194.726 454.011 181.141 454.853 168.082 455.59 155.023 456.222 141.964 457.17 133.855 457.802 124.692 458.961 118.268 464.437 110.159 471.388 111.633 481.392 112.265 490.976 112.686 497.822 111.739 504.14 104.472 506.879 98.8903 508.985 91.8342 510.038 85.9366 509.617 80.7762 509.196 71.6138 503.824 75.8264 497.295 77.4061 494.873 80.8815 494.767 83.3038 493.82 85.726 492.872 87.8323 491.292 89.5173 489.291 97.3106 480.445 94.783 468.123 92.1502 457.697 91.3077 454.432 86.2526 455.801 87.0951 459.066 88.7801 465.49 90.6758 472.335 88.9907 478.97 88.2535 481.814 86.8844 484.552 84.7782 486.553 82.2506 489.08 78.9859 489.186 75.9317 490.555 68.665 493.82 68.4544 502.666 72.667 508.564 78.4593 516.568 89.7279 515.198 98.2584 513.724 107.421 512.144 115.741 508.564 117.215 498.453 118.689 488.765 112.897 476.232 121.322 468.544 129.853 460.856 145.229 462.12 155.76 461.488 169.767 460.646 183.668 459.803 197.675 458.961 211.787 458.118 226.005 456.644 240.117 456.538 246.015 456.538 253.281 457.275 256.335 463.068 259.284 468.649 256.967 475.706 254.019 480.761 251.702 484.657 247.91 488.343 248.542 493.293 249.069 498.032 253.597 500.56 257.705 501.929 273.396 506.773 292.037 493.609 292.774 477.285 293.301 466.754 281.084 450.851 289.931 441.584 293.511 437.792 300.568 437.476 305.412 436.318 310.888 434.949 316.365 433.264 321.63 431.263 341.745 423.68 360.386 412.096 376.078 397.352 414.518 361.018 431.789 306.36 422.838 254.44 422.311 251.596 418.52 252.228 417.783 254.44 407.04 284.033 392.718 314.68 365.547 332.583 353.014 340.903 338.27 346.063 323.105 345.537 306.465 344.905 294.459 335.637 288.035 320.577 281.822 306.044 280.347 289.615 279.294 274.028 278.03 256.125 278.241 238.221 278.346 220.213 278.451 202.625 278.451 185.038 276.977 167.45 275.503 150.284 272.133 133.328 267.92 116.583 260.653 87.727 252.228 44.1268 216.737 38.2292 213.472 37.5973 211.998 42.6524 215.368 43.2842L215.368 43.2842Z" fill="#494949" transform="matrix(1 0 0 1.00126 1435.21 501.706)"/><path d="M215.263 38.2292C193.779 36.3335 172.294 35.2803 150.705 34.9644 130.695 34.6485 110.37 34.6485 90.4651 36.8601 72.667 38.861 54.9742 42.7577 38.861 50.7616 30.9625 54.6582 23.0639 59.5027 17.3769 66.2428 11.9005 72.667 9.05705 80.5656 7.2667 88.6748 3.05412 107.737 0.315943 127.852 2.24491e-14 147.44-0.210629 163.448 3.47538 179.561 17.2716 189.25 23.5904 193.673 31.1731 196.201 38.7557 197.57 42.3364 198.202 46.0224 198.623 49.6031 198.939 54.9742 199.255 60.4505 198.939 64.0312 203.784 67.6119 208.733 71.2979 225.057 65.0844 228.954 61.293 231.376 55.922 228.954 52.236 227.269 47.2862 225.057 42.3364 222.635 37.3866 220.423 30.4359 217.158 20.8523 210.84 13.7962 217.158 8.53047 221.898 8.10921 229.691 11.2686 235.588 15.3759 243.382 24.3276 248.226 32.1209 251.491 41.5992 255.493 51.8147 257.178 62.1355 256.757 65.5056 256.651 65.5056 251.386 62.1355 251.491 52.6572 251.912 43.2842 250.438 34.5431 246.857 27.2765 243.803 16.8503 238.643 14.8493 230.112 14.0068 226.321 15.5865 220.95 19.6938 219.791 24.433 218.422 31.5943 223.477 35.8069 225.373 43.0736 228.743 50.6563 233.482 58.6602 234.851 64.1365 235.799 69.7182 234.114 72.1404 228.743 74.7733 223.161 73.2989 215.473 72.0351 209.576 70.666 203.678 67.8225 197.886 62.0302 195.358 55.5007 192.515 47.1809 193.673 40.2301 192.41 22.7479 189.145 9.16236 179.245 6.21355 160.921 3.26475 142.912 6.74013 122.902 9.68893 105.104 11.1633 96.1521 12.3218 86.4632 16.1131 78.038 19.9044 69.6129 26.8552 63.7153 34.5431 59.0814 49.9191 49.9191 67.6119 45.1799 85.3047 42.7577 105.841 40.0195 126.799 40.0195 147.546 40.2301 170.083 40.4408 192.725 41.5992 215.157 43.4949 218.633 43.8108 218.528 38.5451 215.263 38.2292L215.263 38.2292Z" fill="#494949" transform="matrix(1 0 0 1.00126 1435.21 501.706)"/><path d="M60.8718 254.334C66.5588 322.157 75.1945 389.664 86.8844 456.644 87.5163 460.014 92.5714 458.539 91.9395 455.274 80.3549 388.716 71.7192 321.63 66.0322 254.334 65.8215 251.07 60.5558 250.964 60.8718 254.334L60.8718 254.334Z" fill="#494949" transform="matrix(1 0 0 1.00126 1435.21 501.706)"/><path d="M84.6728 140.068C73.1936 138.699 60.8718 136.909 49.2872 138.173 41.8098 138.91 34.0166 141.648 30.5412 148.809 21.2735 168.187 46.9703 180.404 60.6611 185.985 80.039 193.884 102.155 197.465 121.954 188.829 135.54 182.826 155.549 164.501 144.597 148.177 139.647 140.7 129.853 139.226 121.533 139.015 107.737 138.594 93.8352 139.436 80.1443 139.647 76.7743 139.752 76.7743 145.018 80.1443 144.913 89.8333 144.702 99.4169 144.597 109.106 144.386 116.583 144.281 124.692 143.438 131.959 145.65 141.227 148.493 144.176 157.024 140.174 165.66 137.014 172.61 130.801 178.087 124.166 181.773 109 190.303 90.9917 189.987 74.668 185.248 65.9269 182.721 57.3964 179.245 49.3925 174.927 42.1258 171.031 34.0166 165.028 34.1219 155.865 34.2272 145.65 45.3905 143.333 53.4998 143.122 63.8206 142.912 74.352 144.07 84.5675 145.334 88.0429 145.755 88.0429 140.49 84.6728 140.068L84.6728 140.068Z" fill="#494949" transform="matrix(1 0 0 1.00126 1435.21 501.706)"/><path d="M51.7094 143.333C54.7635 150.81 58.7655 157.55 63.8206 163.764 64.8737 165.133 67.1906 164.607 67.9278 163.237 71.4032 157.34 74.2467 151.126 76.5636 144.702 77.7221 141.543 72.667 140.174 71.5085 143.333 69.2969 149.336 66.5588 155.128 63.3993 160.605 64.7684 160.394 66.1375 160.289 67.5066 160.078 63.0834 154.602 59.3974 148.493 56.7645 141.964 55.5007 138.91 50.3403 140.174 51.7094 143.333L51.7094 143.333Z" fill="#494949" transform="matrix(1 0 0 1.00126 1435.21 501.706)"/><path d="M101.102 145.439C103.208 150.284 105.63 154.918 108.579 159.341 110.159 161.868 112.371 164.607 115.635 163.027 119.005 161.447 120.69 155.655 122.27 152.601 123.745 149.652 127.22 144.913 126.167 141.437 125.956 140.595 125.219 139.752 124.376 139.647 123.007 139.436 122.165 139.647 121.112 140.49 120.48 141.016 120.164 142.28 120.48 143.017 120.48 143.122 120.585 143.228 120.585 143.333 121.744 146.492 126.799 145.123 125.64 141.964 125.64 141.859 125.535 141.753 125.535 141.648 125.324 142.49 125.114 143.333 124.903 144.176 125.008 144.07 125.114 143.965 125.219 143.86 124.376 144.07 123.534 144.281 122.691 144.491 122.797 144.491 122.902 144.491 123.113 144.597 122.481 143.965 121.849 143.333 121.322 142.806 121.428 143.333 120.059 145.334 119.743 145.966 119.111 147.23 118.479 148.599 117.847 149.863 117.32 151.021 114.793 157.445 113.95 157.761 112.897 158.077 106.684 144.597 105.841 142.806 104.261 139.752 99.6275 142.385 101.102 145.439L101.102 145.439Z" fill="#494949" transform="matrix(1 0 0 1.00126 1435.21 501.706)"/><path d="M50.1297 111.001C48.4447 113.002 46.7596 115.425 47.3915 118.268 47.9181 120.69 50.1297 122.691 52.6572 122.586 55.3954 122.375 56.9751 119.848 56.5539 117.32 56.2379 115.319 54.8688 113.424 53.3944 112.16 52.5519 113.634 51.7094 115.109 50.8669 116.583 53.2891 117.32 55.922 115.425 55.7114 112.897 55.5007 109.527 50.235 109.527 50.4456 112.897 50.5509 112.686 50.5509 112.371 50.6563 112.16 51.0775 111.949 51.3935 111.739 51.8147 111.528 51.92 111.528 52.1307 111.528 52.236 111.528 49.8137 110.791 47.6021 114.266 49.7084 115.951 50.235 116.478 50.7616 116.899 51.1828 117.636 51.1828 117.742 51.4988 118.373 51.4988 118.373 51.4988 118.584 51.4988 118.584 51.4988 118.373 51.4988 118.163 51.6041 117.952 51.7094 117.742 51.6041 117.847 52.7626 117.32 52.6572 117.531 52.6572 117.531 52.5519 117.32 52.5519 117.215 52.8679 116.373 53.2891 115.635 53.8157 115.003 54.6582 113.845 54.8688 112.371 53.8157 111.317 52.9732 110.159 51.0775 109.948 50.1297 111.001L50.1297 111.001Z" fill="#494949" transform="matrix(1 0 0 1.00126 1435.21 501.706)"/><path d="M127.536 112.055C124.798 112.476 122.797 115.425 123.007 118.058 123.218 121.322 126.272 123.323 129.432 122.902 132.591 122.481 134.697 119.427 133.96 116.373 133.328 113.529 130.695 111.212 127.852 110.791 126.483 110.58 125.008 111.107 124.587 112.581 124.271 113.845 125.008 115.635 126.377 115.846 127.431 116.057 128.168 116.373 128.589 117.215 128.8 117.636 128.694 117.215 128.8 117.636 128.694 117.32 128.694 117.952 128.8 117.636 128.905 117.426 128.905 117.531 128.694 117.847 128.694 117.847 128.694 117.742 128.8 117.742 129.01 117.636 129.01 117.636 128.694 117.847 128.905 117.742 128.905 117.742 128.694 117.847 128.484 117.847 128.484 117.847 128.694 117.847 128.589 117.847 128.378 117.847 128.273 117.847 128.273 117.847 128.168 117.847 128.062 117.847 127.852 117.531 128.273 118.268 128.062 117.847 128.062 117.847 128.168 117.636 128.168 117.531 128.168 117.531 128.273 117.426 128.273 117.426 128.484 117.32 128.378 117.32 128.273 117.426 128.484 117.32 128.589 117.32 128.8 117.32 130.169 117.11 131.011 115.319 130.59 114.056 130.379 112.371 129.01 111.844 127.536 112.055L127.536 112.055Z" fill="#494949" transform="matrix(1 0 0 1.00126 1435.21 501.706)"/><path d="M146.598 123.745C143.122 127.009 142.912 132.591 145.545 136.488 148.599 141.121 154.707 141.543 159.025 138.278 163.343 134.908 164.607 128.905 161.131 124.482 157.866 120.269 152.179 119.111 147.44 121.322 144.386 122.797 147.019 127.325 150.073 125.851 155.234 123.429 160.815 130.169 155.76 134.171 151.232 137.751 146.492 131.117 150.284 127.641 152.811 125.114 149.125 121.428 146.598 123.745L146.598 123.745Z" fill="#494949" transform="matrix(1 0 0 1.00126 1435.21 501.706)"/><path d="M23.6958 120.059C18.43 122.27 15.3759 128.484 17.9035 133.855 20.431 139.015 27.4871 140.911 32.3315 137.857 37.2813 134.803 38.3345 127.536 34.9644 123.007 31.2784 118.163 24.2223 118.058 19.6938 121.638 17.0609 123.745 20.8523 127.431 23.3798 125.324 25.4861 123.639 29.1721 123.85 30.7518 126.167 32.3315 128.273 31.805 131.748 29.5934 133.223 27.4871 134.697 23.9064 133.96 22.6426 131.643 21.3788 129.432 22.6426 125.956 24.9595 125.008 28.2243 123.85 26.8552 118.689 23.6958 120.059L23.6958 120.059Z" fill="#494949" transform="matrix(1 0 0 1.00126 1435.21 501.706)"/><path d="M138.594 214.42C128.273 216.948 121.322 226.426 116.373 235.273 111.001 244.856 107.21 255.072 104.472 265.603 100.575 280.663 98.6797 296.355 98.3637 311.836 97.8372 332.794 99.3116 355.226 105.841 375.235 111.423 392.191 121.954 407.672 139.015 414.518 155.865 421.258 173.558 416.94 184.722 402.512 196.938 386.82 199.466 366.178 199.36 346.906 199.255 329.213 198.307 311.204 195.464 293.722 192.41 274.344 189.882 252.439 179.561 235.273 171.241 221.582 155.128 211.156 138.594 214.42 135.224 215.052 136.698 220.107 139.963 219.475 154.496 216.632 168.714 226.953 175.665 239.064 183.353 252.439 185.88 268.447 188.408 283.401 191.251 299.83 192.831 315.943 193.568 332.583 194.411 350.276 194.937 368.706 188.408 385.451 181.562 402.933 166.608 416.203 146.914 411.569 128.589 407.251 116.899 391.77 111.107 374.709 105.104 356.911 103.524 337.322 103.419 318.682 103.314 303.411 104.683 288.246 107.947 273.291 109.948 264.234 112.476 255.177 116.373 246.647 121.006 236.431 127.852 222.424 139.858 219.37 143.228 218.633 141.859 213.578 138.594 214.42Z" fill="#494949" transform="matrix(1 0 0 1.00126 1435.21 501.706)"/><path d="M216.211 238.537C216.948 250.964 219.054 263.286 222.529 275.187 224.215 280.979 226.216 286.666 228.638 292.142 230.112 295.512 232.218 299.198 236.01 300.252 245.488 302.99 249.069 291.616 249.279 284.56 249.595 270.658 248.542 256.546 246.752 242.75 246.331 239.485 241.065 239.38 241.486 242.75 242.645 252.228 243.487 261.812 243.803 271.395 244.014 276.029 244.224 280.768 243.908 285.402 243.803 287.93 243.698 290.984 241.907 292.985 238.853 296.46 236.22 294.986 234.219 291.826 229.691 284.665 227.479 274.45 225.478 266.235 223.267 257.073 221.898 247.805 221.371 238.432 221.266 235.167 216 235.167 216.211 238.537L216.211 238.537Z" fill="#494949" transform="matrix(1 0 0 1.00126 1435.21 501.706)"/><path d="M134.065 36.8601C131.643 29.4881 129.01 22.116 125.956 14.9547 123.955 10.2155 122.27 4.42321 116.794 2.73818 115.741 2.42223 114.266 2.94881 113.845 3.89664 108.474 14.9547 103.629 26.2233 99.3116 37.8079 98.1531 40.9673 103.208 42.3364 104.367 39.177 108.579 28.119 113.213 17.2716 118.373 6.5295 117.426 6.95076 116.373 7.37201 115.425 7.68796 119.743 9.05705 122.165 19.1672 123.534 22.7479 125.535 27.803 127.325 32.9634 129.01 38.1238 130.063 41.4939 135.118 40.0195 134.065 36.8601L134.065 36.8601Z" fill="#494949" transform="matrix(1 0 0 1.00126 1435.21 501.706)"/><path d="M189.039 34.9644C185.459 28.2243 181.562 21.5895 177.35 15.1653 175.033 11.6899 171.031 2.94881 166.081 2.52755 160.815 2.10629 158.077 10.0049 156.181 13.5856 152.706 20.2204 149.863 27.2765 147.546 34.4378 146.492 37.7026 151.548 39.0717 152.601 35.8069 154.391 30.3306 156.497 24.8542 159.025 19.6938 160.183 17.3769 161.342 15.1653 162.606 12.9537 163.237 11.9005 163.764 10.6368 164.501 9.68893 165.87 7.89859 165.554 7.58264 167.345 10.0049 173.874 18.6407 179.456 28.0137 184.511 37.5973 186.091 40.6514 190.619 38.0185 189.039 34.9644L189.039 34.9644Z" fill="#494949" transform="matrix(1 0 0 1.00126 1435.21 501.706)"/><path d="M228.532 40.5461C226.953 27.2765 224.004 14.4281 219.581 1.89566 218.843-0.315943 216.105-0.631887 214.736 1.26377 207.575 12.1112 202.098 23.8011 198.518 36.3335 197.57 39.5982 202.625 40.9673 203.573 37.7026 207.048 25.5914 212.209 14.3228 219.159 3.89664 217.58 3.68601 216 3.47538 214.315 3.26475 218.633 15.3759 221.582 27.803 223.056 40.5461 223.583 43.9161 228.848 43.9161 228.532 40.5461L228.532 40.5461Z" fill="#494949" transform="matrix(1 0 0 1.00126 1435.21 501.706)"/><path d="M257.283 76.9849C265.392 69.9288 272.027 61.609 277.398 52.236 278.136 50.8669 277.504 48.6553 275.819 48.3393 262.76 46.1277 249.701 45.0746 236.536 45.2852 233.166 45.2852 233.166 50.5509 236.536 50.5509 249.279 50.3403 261.917 51.2882 274.45 53.3944 273.923 52.1307 273.396 50.8669 272.87 49.4978 267.815 58.4495 261.391 66.3481 253.597 73.1936 250.964 75.5105 254.756 79.1965 257.283 76.9849L257.283 76.9849Z" fill="#494949" transform="matrix(1 0 0 1.00126 1435.21 501.706)"/><path d="M265.603 119.953C277.398 115.741 287.614 108.579 295.302 98.6797 296.566 96.9946 296.144 95.099 294.143 94.2565 282.98 89.9386 271.395 87.2004 259.495 85.9366 256.125 85.6207 256.125 90.8864 259.495 91.2023 270.974 92.3608 282.032 95.099 292.669 99.3116 292.248 97.8372 291.932 96.3627 291.51 94.8883 284.349 104.051 275.081 110.896 264.129 114.793 260.969 116.057 262.338 121.112 265.603 119.953L265.603 119.953Z" fill="#494949" transform="matrix(1 0 0 1.00126 1435.21 501.706)"/><path d="M277.398 161.763C288.246 155.865 298.145 148.704 307.097 140.174 308.571 138.804 307.834 136.277 305.939 135.75 303.095 134.908 271.817 127.009 271.501 128.694 272.238 125.43 267.078 123.955 266.446 127.325 265.077 133.855 273.186 134.065 277.609 134.697 286.771 136.172 295.723 138.278 304.675 140.805 304.254 139.331 303.938 137.857 303.516 136.382 294.881 144.491 285.297 151.442 274.871 157.129 271.711 158.92 274.45 163.448 277.398 161.763L277.398 161.763Z" fill="#494949" transform="matrix(1 0 0 1.00126 1435.21 501.706)"/><path d="M279.083 207.996C289.931 201.993 300.357 195.358 310.362 188.092 312.152 186.723 312.047 183.984 309.73 183.247 298.882 179.772 288.035 176.718 276.977 173.98 273.712 173.137 272.238 178.297 275.608 179.035 286.666 181.667 297.513 184.827 308.361 188.302 308.15 186.723 307.94 185.143 307.729 183.458 297.724 190.725 287.298 197.465 276.451 203.362 273.502 205.153 276.135 209.681 279.083 207.996L279.083 207.996Z" fill="#494949" transform="matrix(1 0 0 1.00126 1435.21 501.706)"/><path d="M277.82 250.122C287.509 243.487 297.092 236.958 306.781 230.323 308.677 229.059 308.361 226.216 306.149 225.478 296.987 222.74 287.93 220.002 278.767 217.264 275.503 216.316 274.134 221.371 277.398 222.319 286.561 225.057 295.618 227.795 304.78 230.533 304.569 228.954 304.359 227.374 304.148 225.689 294.459 232.324 284.876 238.853 275.187 245.488 272.343 247.489 274.976 252.123 277.82 250.122L277.82 250.122Z" fill="#494949" transform="matrix(1 0 0 1.00126 1435.21 501.706)"/><path d="M280.452 298.251C290.036 290.879 299.62 283.507 309.203 276.24 310.572 275.187 311.204 272.659 309.203 271.711 299.83 267.183 290.457 262.654 281.084 258.126 278.03 256.651 275.397 261.18 278.451 262.654 287.824 267.183 297.197 271.711 306.57 276.24 306.57 274.765 306.57 273.186 306.57 271.711 296.987 279.083 287.403 286.455 277.82 293.722 275.081 295.723 277.714 300.357 280.452 298.251L280.452 298.251Z" fill="#494949" transform="matrix(1 0 0 1.00126 1435.21 501.706)"/><path d="M301.41 334.163C301.305 334.163 301.199 334.163 301.094 334.268 299.936 334.584 299.198 335.637 299.198 336.796 299.093 337.849 299.409 338.691 300.252 339.429 301.199 340.166 302.358 340.482 303.411 339.85 307.308 337.428 307.834 329.529 308.993 325.422 311.099 318.26 313.205 311.204 315.206 304.043 315.628 302.568 314.364 300.462 312.679 300.673 302.674 301.937 292.669 303.516 282.769 305.517 279.399 306.149 280.874 311.31 284.138 310.572 293.617 308.677 303.095 307.097 312.679 305.939 311.836 304.78 310.994 303.727 310.151 302.568 308.571 308.045 306.886 313.627 305.307 319.103 304.569 321.736 303.832 324.263 302.99 326.896 302.568 328.16 301.621 334.689 300.673 335.216 301.726 335.321 302.779 335.532 303.832 335.637 303.938 336.059 304.148 336.374 304.254 336.796 303.622 337.638 302.99 338.481 302.358 339.323 302.463 339.323 302.568 339.323 302.674 339.218 306.149 338.481 304.675 333.426 301.41 334.163L301.41 334.163Z" fill="#494949" transform="matrix(1 0 0 1.00126 1435.21 501.706)"/><path d="M349.433 343.115C349.539 343.115 349.644 343.115 349.855 343.009 348.907 342.588 347.854 342.167 346.906 341.851 347.011 341.956 347.117 342.167 347.117 342.272 347.117 341.43 347.117 340.482 347.117 339.639 347.011 339.745 347.011 339.955 346.906 340.06 347.854 339.639 348.907 339.218 349.855 338.902 349.855 338.902 347.327 329.845 347.117 329.108 345.958 325.948 344.694 322.894 343.325 319.84 341.745 316.575 339.429 308.255 334.479 309.098 329.529 309.94 327.423 319.314 325.738 323.21 322.789 330.161 320.051 337.217 317.523 344.378 316.365 347.538 321.525 349.012 322.578 345.747 324.685 339.534 327.001 333.426 329.634 327.317 330.898 324.369 332.162 321.42 333.531 318.471 333.742 317.944 335.427 314.153 334.9 314.469 334.373 313.942 334.373 314.048 335.005 314.996 335.427 315.838 335.953 316.575 336.374 317.418 339.113 322.684 341.535 328.265 343.325 333.952 344.378 337.112 344.589 343.009 348.591 343.852 349.644 344.062 351.013 343.746 351.54 342.693 352.172 341.324 352.172 340.482 351.54 339.113 350.908 338.059 349.749 337.744 348.591 337.954 348.486 337.954 348.38 337.954 348.17 338.059 344.694 338.586 346.169 343.641 349.433 343.115L349.433 343.115Z" fill="#494949" transform="matrix(1 0 0 1.00126 1435.21 501.706)"/><path d="M387.979 312.257C380.607 306.886 373.235 300.568 364.283 298.145 362.492 297.619 361.018 298.988 360.913 300.673 360.07 312.363 359.228 324.053 358.49 335.743 358.28 339.113 363.546 339.113 363.756 335.743 364.599 324.053 365.441 312.363 366.178 300.673 365.02 301.515 363.967 302.358 362.808 303.2 371.234 305.517 378.184 311.836 385.24 316.786 388.084 318.787 390.717 314.153 387.979 312.257L387.979 312.257Z" fill="#494949" transform="matrix(1 0 0 1.00126 1435.21 501.706)"/><path d="M409.147 278.873C409.357 278.978 409.463 278.978 409.673 279.083 410.832 279.505 412.096 278.767 412.622 277.925 412.727 277.714 412.833 277.609 412.938 277.398 413.57 276.345 413.254 275.081 412.517 274.239 410.516 271.922 406.198 271.922 403.46 271.29 398.615 270.237 393.666 269.289 388.821 268.447 387.347 268.236 385.24 269.078 385.451 270.974 386.82 282.032 390.19 292.564 395.456 302.358 397.036 305.307 401.669 302.674 399.984 299.725 395.14 290.773 391.98 281.084 390.611 270.974 389.453 271.817 388.4 272.659 387.241 273.502 391.138 274.134 395.14 274.871 399.037 275.713 401.038 276.135 407.462 276.451 408.725 277.925 408.62 276.872 408.41 275.819 408.304 274.765 408.199 274.976 408.094 275.081 407.988 275.292 408.936 274.871 409.989 274.45 410.937 274.134 410.726 274.028 410.621 274.028 410.411 273.923 407.356 272.659 405.987 277.714 409.147 278.873L409.147 278.873Z" fill="#494949" transform="matrix(1 0 0 1.00126 1435.21 501.706)"/></g></svg>