<svg width="466" height="612" xmlns="http://www.w3.org/2000/svg" xmlns:xlink="http://www.w3.org/1999/xlink" xml:space="preserve" overflow="hidden"><defs><clipPath id="clip0"><rect x="42" y="360" width="466" height="612"/></clipPath></defs><g clip-path="url(#clip0)" transform="translate(-42 -360)"><path d="M389.967 261.517C390.224 260.106 390.736 257.414 392.788 254.722 393.429 253.825 396.89 249.466 402.659 249.594 403.171 249.594 408.171 249.723 410.863 253.312 413.171 256.261 411.76 258.953 414.196 261.132 415.863 262.542 417.145 261.773 420.349 262.798 421.76 263.183 427.272 265.106 429.836 270.49 432.272 275.746 430.22 280.746 429.964 281.387 429.579 282.284 427.528 286.899 422.913 288.694 417.016 291.001 411.632 287.027 409.966 289.335 409.068 290.617 410.607 291.899 410.607 295.36 410.607 296.001 410.607 302.154 406.376 305.231 402.402 308.179 397.274 306.641 394.967 306 387.916 303.949 384.583 298.18 384.199 297.411 381.507 292.411 382.019 287.54 382.276 285.874 381.378 286.13 378.43 286.899 375.994 285.361 371.892 282.925 372.533 276.515 372.661 275.362 373.174 270.747 375.866 267.798 376.892 266.773 381.763 261.901 388.301 261.517 389.967 261.517Z" fill="#FDD2F5" transform="matrix(1.00057 0 0 1 42.5159 360.385)"/><path d="M363.816 36.279C352.919 34.3561 340.228 32.0486 324.332 32.1768 280.746 32.4332 247.287 50.124 232.16 59.7386 214.469 70.8915 203.957 82.0444 201.265 84.9929 196.907 89.7361 187.805 100.12 179.729 115.375 166.525 140.116 163.961 162.422 162.038 180.37 161.012 190.24 161.14 206.649 161.525 239.595 161.781 263.696 162.166 263.568 162.294 283.951 162.422 300.231 162.679 321.64 161.781 348.945 161.269 367.277 160.499 378.558 159.987 405.351 159.858 412.401 159.73 418.683 159.73 422.272 159.346 453.936 159.602 464.833 157.423 481.498 156.269 489.959 155.628 494.318 153.833 499.702 151.782 505.727 146.398 518.29 133.835 528.802 122.041 538.673 109.734 541.621 98.9661 544.185 85.3775 547.39 74.6091 547.262 68.8404 547.005 58.4566 546.749 48.4575 546.365 37.6892 540.468 34.2279 538.673 31.664 536.75 29.9975 535.34 36.5354 524.187 43.2015 513.034 49.7394 501.881 51.5341 502.137 53.2007 502.394 54.9954 502.65 59.4822 516.111 63.969 529.571 68.584 542.903 72.8144 542.903 77.0448 542.903 81.2752 542.903 79.4805 529.827 77.6858 516.623 75.8911 503.548 82.8136 507.65 90.8898 513.162 99.0943 520.597 105.248 526.11 110.247 531.622 114.349 536.622 118.58 534.571 122.81 532.519 127.041 530.34 124.349 523.93 121.656 517.264 119.093 510.085 115.631 500.471 112.811 491.369 110.375 482.652 115.631 483.934 121.528 485.6 127.81 488.164 136.527 491.625 143.834 495.6 149.731 499.189 151.398 496.241 153.577 491.369 154.474 484.831 155.243 478.934 154.474 474.063 153.833 470.986 148.962 467.397 143.321 462.654 137.681 456.757 132.168 450.988 127.81 445.347 124.477 440.476 129.605 438.809 135.501 437.271 141.911 435.989 147.039 434.964 151.91 434.323 156.397 433.81 156.397 426.631 156.269 419.58 156.269 412.401 152.551 411.119 147.552 409.068 142.424 405.607 136.527 401.633 132.425 397.274 129.733 394.07 139.219 389.326 148.577 384.583 158.064 379.712 158.192 371.507 158.32 363.175 158.448 354.97 150.757 349.971 142.937 344.971 135.245 340.1 135.245 338.561 135.245 337.023 135.373 335.357 143.193 329.972 151.013 324.588 158.705 319.332 158.576 314.845 158.576 310.487 158.448 306 155.628 305.487 152.423 304.718 149.09 303.693 141.398 301.257 135.245 297.796 130.758 294.719 134.732 287.925 139.988 280.233 146.783 272.413 150.628 267.926 154.602 263.952 158.192 260.491 158.064 254.081 158.064 247.672 157.935 241.262 154.09 240.621 148.962 239.467 143.193 236.775 136.783 233.698 132.04 229.981 129.092 227.032 138.963 221.392 148.834 215.879 158.705 210.239 158.576 205.111 158.32 199.983 158.192 194.855 154.474 192.548 150.5 190.112 146.526 187.42 141.142 183.703 136.271 180.113 131.784 176.524 141.911 171.909 151.91 167.294 162.038 162.679 163.191 156.91 164.473 151.141 165.627 145.372 162.166 144.347 157.551 142.809 152.551 140.373 145.244 136.783 139.091 133.835 139.347 130.886 139.476 129.22 142.039 127.81 164.217 122.426 168.832 121.272 172.55 120.375 175.114 119.862 176.395 116.529 177.677 113.196 178.959 109.863 176.524 106.401 173.832 101.786 171.652 96.274 168.191 87.685 167.037 79.9933 166.781 74.3527 176.524 78.8396 186.138 83.3264 195.881 87.685 199.599 83.4545 203.188 79.3523 206.906 75.1219 205.367 69.225 203.957 61.5333 203.957 52.5597 203.957 45.8936 204.598 39.9967 205.624 35.2535 213.7 42.6887 221.904 50.2522 229.981 57.6875 233.827 55.38 237.801 53.0725 241.646 50.6368 241.646 50.6368 243.569 38.4583 246.646 27.049 249.338 17.3062 251.517 8.97361 254.209 9.1018 256.773 9.1018 257.158 17.0499 263.696 28.0746 266.388 32.5614 269.08 36.0226 270.875 38.0737 270.875 38.0737 273.567 37.1764 273.567 37.1764 273.823 37.0482 282.412 34.3561 282.797 34.3561 284.463 29.8693 286.771 24.9979 289.719 19.7419 293.565 12.8194 297.796 7.17889 301.513 2.69208 305.231 6.53791 309.461 11.5375 313.435 17.819 316.127 22.0494 318.178 26.1517 319.717 29.7411 324.588 29.8693 329.588 29.9975 334.459 29.9975 335.869 26.6644 338.177 22.3058 341.638 17.9472 346.125 11.5375 351.381 7.69166 355.098 5.38416 358.688 14.9987 362.406 24.4851 365.995 34.0997 370.995 35.3817 376.122 36.6636 381.122 37.9455 391.249 24.2287 395.223 21.2803 395.223 21.2803 397.659 19.4855 401.377 17.0499 406.889 15.3833 408.299 19.9983 409.581 25.1261 410.607 30.8948 411.889 37.8173 412.401 44.2271 412.658 49.8676 400.736 45.2526 384.199 39.9967 363.816 36.279ZM321.255 267.029C316.768 268.311 310.23 270.618 303.564 275.362 292.924 282.797 287.284 292.283 282.669 301.385 268.439 329.844 263.055 357.662 262.286 361.636 254.85 401.505 258.44 431.246 259.722 440.861 262.67 461.243 267.157 472.396 270.618 479.447 274.464 487.395 280.746 499.83 294.206 510.085 301.385 515.598 308.436 518.674 313.179 520.469 317.153 504.445 319.076 490.985 320.101 481.242 321.383 469.063 321.512 459.961 321.64 446.501 321.64 441.63 321.768 427.272 320.871 408.684 320.101 393.3 319.717 385.609 318.691 378.43 317.538 370.995 316.256 364.841 316.127 354.842 315.999 340.484 318.563 336.895 319.589 335.613 323.819 330.485 330.613 329.331 337.279 328.178 344.843 326.896 346.253 328.562 353.817 326.767 359.585 325.486 365.354 324.075 367.021 319.717 368.559 315.743 365.995 311.128 363.816 308.692 360.995 305.487 357.406 304.718 355.355 304.205 348.817 302.795 346.766 305.615 339.459 305.231 336.767 305.103 330.613 304.846 325.742 300.616 321.255 296.77 318.563 290.232 319.332 284.207 320.358 275.746 327.793 271.003 325.998 268.183 325.101 267.157 323.05 267.029 321.255 267.029Z" fill="#FABB88" transform="matrix(1.00057 0 0 1 42.5159 360.385)"/><path d="M397.531 268.952C394.07 270.875 392.659 274.592 393.813 277.284 395.352 280.874 400.736 280.361 401.377 280.361 402.274 280.233 406.248 279.977 407.402 277.028 408.427 274.336 406.504 271.131 404.197 269.721 401.248 267.798 398.044 268.824 397.531 268.952Z" fill="#CED8FF" transform="matrix(1.00057 0 0 1 42.5159 360.385)"/><path d="M292.54 286.514C286.643 293.181 283.053 301 276.131 316.512 270.234 329.588 266.901 337.023 263.952 347.022 258.184 366.892 258.312 382.276 258.568 409.709 258.696 428.938 258.824 438.553 261.517 450.603 263.311 458.423 268.054 476.499 280.746 494.446 289.591 507.009 297.026 511.88 302.026 514.444 306.256 516.623 310.102 517.905 312.923 518.674 313.692 520.597 314.333 522.52 315.102 524.443 313.179 530.725 309.333 545.467 311.641 560.85 312.794 568.799 313.563 573.798 317.538 578.029 319.589 580.208 322.152 581.874 324.204 585.977 325.357 588.284 326.896 591.361 326.255 594.566 324.845 601.232 314.717 604.565 307.795 604.949 301.513 605.334 296.77 602.898 295.873 602.385 295.36 602.129 286.514 597.129 284.976 588.284 284.592 586.105 285.104 585.977 285.874 574.952 286.258 569.824 286.386 567.26 286.002 566.619 282.156 561.235 255.235 575.08 238.185 582.259 232.929 584.438 195.112 600.078 152.808 600.206 110.888 600.463 80.1215 585.464 63.5844 577.259 29.9975 560.85 17.4344 544.313 11.9221 535.34 6.28153 526.366 1.66653 515.341 3.46125 514.06 5.51236 512.649 12.8194 524.956 27.69 533.801 44.6116 543.801 61.7897 544.057 72.558 544.185 80.6343 544.313 97.6841 544.313 116.657 535.34 125.759 531.109 139.091 524.828 147.167 510.598 148.321 508.547 151.526 502.65 154.218 485.729 157.679 463.679 156.654 446.373 156.525 444.578 155.115 421.888 158.32 430.99 159.602 355.227 159.987 331.895 160.628 298.565 159.474 254.979 158.705 222.161 157.935 223.827 158.32 209.854 159.217 177.677 160.243 148.577 175.755 117.426 183.574 101.786 192.42 90.5052 198.317 83.9673 202.932 78.7114 219.084 61.1487 246.261 47.5601 270.875 35.1253 292.155 32.1768 303.821 30.6385 333.946 26.6644 357.534 30.7667 367.021 32.6896 383.301 36.0226 406.376 43.0733 429.195 58.3284 444.835 68.7122 449.834 76.0193 451.629 78.8396 458.551 89.6079 459.449 100.12 460.987 120.759 463.295 151.782 458.936 172.037 456.885 180.37 452.911 196.522 448.68 202.804 445.988 206.265 438.553 215.623 429.579 220.11 421.631 223.956 408.684 230.237 406.761 227.93 386.25 234.724 383.686 235.621 367.149 241.005 347.535 251.646 345.484 252.671 339.587 258.312 330.101 263.952 327.921 265.234 326.127 266.26 324.973 266.901 307.026 272.029 297.283 281.002 292.54 286.514Z" fill="#CED8FF" transform="matrix(1.00057 0 0 1 42.5159 360.385)"/><path d="M350.483 167.422C349.971 167.55 345.997 168.447 344.074 172.293 341.766 176.652 344.202 181.01 344.458 181.395 344.587 181.651 347.535 186.395 353.047 186.138 356.38 186.01 359.457 184.087 361.124 181.139 362.79 177.934 362.406 174.216 360.483 171.524 358.303 168.191 354.329 166.653 350.483 167.422Z" fill="#FABB88" transform="matrix(1.00057 0 0 1 42.5159 360.385)"/><path d="M285.617 564.312C244.979 571.491 210.111 597.899 167.935 598.411 144.988 598.668 122.297 593.412 100.248 587.387 79.9933 581.874 59.8668 574.824 42.3041 563.03 24.3569 550.851 9.87097 533.417 4.615 512.137 3.33305 512.906 2.05111 513.675 0.640972 514.444 27.3054 548.928 78.1986 553.928 116.529 538.032 127.041 533.673 137.424 527.776 144.603 518.803 151.91 509.701 154.987 498.163 156.525 486.754 158.32 472.012 158.448 456.885 159.089 442.014 159.73 425.862 160.243 409.837 160.756 393.685 161.653 361.893 162.166 330.101 162.166 298.308 162.294 267.414 161.269 236.647 161.653 205.752 162.038 176.139 164.986 145.501 178.062 118.452 188.702 96.5304 205.111 77.6858 224.725 63.4562 268.567 31.664 324.716 24.9979 376.251 38.9711 390.096 42.6887 403.684 47.8165 416.632 54.2262 429.067 60.3796 442.783 67.1739 449.706 79.8651 456.628 92.4282 458.039 108.068 458.936 122.041 459.961 138.45 459.192 154.987 456.5 171.14 454.193 184.6 450.475 198.701 440.861 208.829 431.759 218.443 418.939 222.802 406.504 226.391 381.122 233.57 355.098 241.39 333.818 257.671 325.998 263.696 318.819 271.772 317.666 282.028 316.64 290.617 319.717 300.488 327.665 304.846 338.049 310.615 358.816 300.744 364.841 313.563 370.866 326.255 340.1 325.357 333.946 326.255 325.101 327.408 317.281 331.639 314.589 340.741 313.051 346.125 313.563 351.894 314.204 357.406 315.102 364.969 316.127 372.661 316.897 380.225 319.973 411.119 320.486 442.271 318.435 473.294 317.409 489.574 315.615 505.855 313.179 522.136 311.384 533.93 308.82 545.724 309.077 557.646 309.333 566.876 311.256 576.49 317.538 583.541 318.948 585.207 320.614 586.489 322.281 587.899 326.383 591.104 323.819 594.822 320.358 597.77 315.358 601.873 308.308 603.539 301.898 602.129 289.207 599.181 283.694 584.695 288.437 573.285 289.591 570.465 284.976 569.311 283.951 572.003 276.003 591.104 293.181 611.615 313.307 606.488 319.845 604.821 333.049 597.001 329.331 588.54 327.537 584.566 322.281 582.387 319.717 578.926 315.871 573.67 314.333 566.876 313.948 560.466 313.051 547.262 316.127 534.186 318.178 521.11 320.486 505.342 322.281 489.446 323.306 473.55 325.357 441.245 324.716 408.812 321.383 376.763 320.614 369.713 319.589 362.79 318.819 355.739 318.05 348.689 317.666 340.356 323.691 335.357 332.28 327.921 346.766 331.639 357.15 328.947 364.713 327.024 373.687 321.127 369.456 312.153 364.2 300.744 351.124 302.795 340.997 302.923 332.793 303.052 326.127 300.231 323.434 292.027 321.255 285.361 322.665 278.438 326.255 272.669 333.946 260.363 349.202 253.056 361.765 247.031 375.353 240.493 389.583 236.134 404.197 232.16 415.478 229.083 427.016 225.622 436.758 218.956 458.551 203.701 462.397 174.344 463.935 149.731 464.961 133.963 464.192 117.939 461.628 102.299 459.705 90.377 456.244 78.1986 447.783 68.9686 438.681 59.0976 425.221 52.9443 413.299 47.4319 400.479 41.535 387.147 36.7918 373.558 33.4587 347.022 26.9208 319.332 25.3825 292.283 30.1257 245.108 38.3301 201.009 67.4302 177.549 109.606 163.961 134.091 159.089 161.91 157.551 189.471 155.884 221.007 157.551 252.799 157.551 284.463 157.551 317.538 157.166 350.612 156.397 383.686 155.628 416.247 155.372 449.193 152.551 481.626 151.269 496.497 147.424 511.367 135.886 521.623 126.015 530.212 113.067 535.468 100.504 538.673 77.3012 544.57 51.4059 543.416 29.8693 532.519 19.7419 527.392 11.1529 520.213 4.23041 511.367 2.69208 509.445-0.256389 511.624 0.256389 513.675 10.1274 553.415 47.3037 575.849 83.8391 587.643 105.889 594.822 129.092 600.719 152.295 602.77 174.857 604.821 196.394 601.104 217.546 593.284 240.621 584.695 262.67 573.414 287.155 569.055 289.848 568.286 288.694 563.799 285.617 564.312L285.617 564.312Z" fill="#494949" transform="matrix(1.00057 0 0 1 42.5159 360.385)"/><path d="M355.098 326.383C352.535 335.357 351.765 344.33 352.919 353.56 353.304 356.509 358.047 356.637 357.662 353.56 356.637 344.715 357.278 336.126 359.713 327.665 360.483 324.716 355.868 323.563 355.098 326.383L355.098 326.383Z" fill="#494949" transform="matrix(1.00057 0 0 1 42.5159 360.385)"/><path d="M388.814 259.465C379.327 259.594 370.61 266.901 370.097 276.772 369.713 284.976 377.276 293.181 384.968 286.771 383.686 286.002 382.404 285.233 380.994 284.463 378.686 296.385 385.096 309.974 398.556 309.974 409.837 309.974 417.016 298.18 411.889 288.181 410.991 289.335 410.094 290.488 409.197 291.642 418.811 295.36 430.861 289.591 433.041 279.336 435.348 268.567 425.862 258.824 415.478 258.44 416.247 259.081 417.016 259.594 417.786 260.235 415.35 242.544 390.48 242.287 387.275 259.594 386.762 262.542 391.249 263.824 391.762 260.876 394.198 247.8 411.376 248.441 413.171 261.517 413.299 262.542 414.452 263.183 415.478 263.311 423.298 263.568 430.861 271.644 428.041 279.72 425.605 286.899 417.145 289.848 410.478 287.284 408.427 286.514 407.017 289.078 407.786 290.745 412.017 298.821 404.069 307.026 395.736 305.103 387.147 303.052 383.942 293.95 385.481 285.874 385.993 283.438 383.429 282.028 381.507 283.566 376.122 288.053 374.584 278.951 374.712 276.9 374.84 274.464 375.866 272.285 377.276 270.362 379.968 266.516 384.07 264.465 388.685 264.337 391.89 264.08 391.89 259.465 388.814 259.465L388.814 259.465Z" fill="#494949" transform="matrix(1.00057 0 0 1 42.5159 360.385)"/><path d="M396.249 267.029C392.018 269.208 390.224 274.464 391.762 278.951 393.3 283.566 398.172 285.617 402.787 284.463 407.402 283.181 410.735 278.823 409.709 273.951 408.556 268.695 403.428 265.362 398.172 266.388 395.223 266.901 396.505 271.516 399.454 270.875 402.018 270.362 404.71 272.669 405.094 275.233 405.479 277.797 403.3 279.592 400.992 279.977 395.608 280.874 394.326 273.31 398.685 271.131 401.377 269.593 398.941 265.619 396.249 267.029L396.249 267.029Z" fill="#494949" transform="matrix(1.00057 0 0 1 42.5159 360.385)"/><path d="M379.84 292.155C379.968 292.155 380.096 292.283 380.225 292.283 380.994 292.54 382.019 292.283 382.532 291.642 383.686 290.36 384.199 288.309 382.66 286.899 380.866 285.361 378.686 286.386 377.148 287.796 372.277 292.283 368.174 298.18 364.585 303.949 363.047 306.513 367.021 308.948 368.687 306.385 370.482 303.436 372.533 300.488 374.712 297.796 375.738 296.642 376.635 295.36 377.789 294.206 378.43 293.565 380.096 291.001 381.122 291.001 380.481 290.617 379.712 290.232 379.071 289.848 379.199 289.976 379.327 290.104 379.327 290.232 379.199 289.591 379.199 289.078 379.071 288.437 379.071 288.437 379.199 288.309 379.199 288.309 379.968 288.053 380.737 287.925 381.507 287.668 381.378 287.668 381.25 287.54 381.122 287.54 378.302 286.643 377.02 291.129 379.84 292.155L379.84 292.155Z" fill="#494949" transform="matrix(1.00057 0 0 1 42.5159 360.385)"/><path d="M323.434 264.337C284.976 270.234 269.465 319.973 261.901 352.15 256.773 374.071 254.594 396.633 255.62 419.067 256.517 440.091 259.722 461.628 268.567 480.729 277.413 499.702 292.54 515.726 312.538 522.649 315.358 523.674 316.64 519.059 313.82 518.162 274.592 504.445 262.67 459.705 260.491 422.529 258.184 383.173 265.234 341.382 283.053 305.872 291.642 288.822 304.718 272.029 324.716 268.824 327.665 268.439 326.383 263.952 323.434 264.337L323.434 264.337Z" fill="#494949" transform="matrix(1.00057 0 0 1 42.5159 360.385)"/><path d="M392.018 164.986C385.096 163.448 383.173 174.729 390.352 175.626 393.3 176.011 396.377 174.216 397.531 171.396 398.941 167.935 397.274 163.961 394.582 161.653 393.813 161.012 392.659 160.628 391.762 161.269 388.044 163.961 386.891 168.447 388.685 172.678 389.07 173.447 389.967 173.703 390.736 173.832 392.659 174.088 394.326 172.806 395.223 171.14 396.249 169.217 395.864 167.294 394.582 165.755 392.659 163.32 389.326 166.781 391.249 169.088 390.993 168.832 391.121 169.088 390.736 169.088 391.377 169.473 392.147 169.858 392.788 170.242 392.018 168.576 392.659 166.396 394.198 165.243 393.3 165.114 392.275 164.986 391.377 164.858 392.916 166.14 394.967 169.858 391.89 170.755 391.377 170.883 390.736 171.011 390.48 170.499 390.352 170.242 390.608 169.858 390.736 169.729 390.993 169.345 390.993 169.473 390.865 169.473 393.685 170.242 394.967 165.627 392.018 164.986L392.018 164.986Z" fill="#494949" transform="matrix(1.00057 0 0 1 42.5159 360.385)"/><path d="M432.143 173.447C429.067 172.037 425.734 173.447 424.323 176.524 423.042 179.472 424.452 182.677 427.4 184.087 430.22 185.369 433.553 184.728 435.476 182.292 437.656 179.6 437.527 175.626 435.605 172.934 434.707 171.652 433.041 171.396 431.887 172.421 430.092 174.088 428.426 175.626 426.631 177.293 424.452 179.344 427.785 182.677 429.964 180.626 431.759 178.959 433.425 177.421 435.22 175.755 433.938 175.626 432.784 175.498 431.502 175.242 432.656 176.908 432.656 180.498 429.836 179.985 429.195 179.857 428.426 179.472 428.554 178.831 428.554 178.447 429.323 177.421 429.836 177.549 430.99 178.062 432.4 177.934 433.041 176.652 433.553 175.626 433.297 173.96 432.143 173.447L432.143 173.447Z" fill="#494949" transform="matrix(1.00057 0 0 1 42.5159 360.385)"/><path d="M352.022 164.858C345.099 164.986 339.972 171.524 340.228 178.19 340.484 184.985 346.766 189.215 353.176 188.318 359.713 187.42 365.226 182.036 364.328 175.242 363.303 167.55 355.227 162.294 347.791 163.961 344.843 164.602 346.125 169.217 349.073 168.447 353.817 167.294 359.201 171.011 359.713 176.011 360.098 180.241 356.252 183.19 352.406 183.574 342.407 184.6 343.048 169.601 351.894 169.473 355.098 169.601 355.098 164.858 352.022 164.858L352.022 164.858Z" fill="#494949" transform="matrix(1.00057 0 0 1 42.5159 360.385)"/><path d="M344.202 207.419C359.457 222.289 379.199 230.878 400.479 232.16 403.556 232.288 403.556 227.673 400.479 227.417 380.481 226.263 361.893 217.93 347.535 203.957 345.356 201.906 342.023 205.239 344.202 207.419L344.202 207.419Z" fill="#494949" transform="matrix(1.00057 0 0 1 42.5159 360.385)"/><path d="M66.5329 538.673C66.4047 539.955 66.1483 541.365 66.0201 542.647 67.5584 542.391 69.0968 542.262 70.6351 542.006 67.8148 532.904 65.1227 523.93 62.3025 514.829 60.8923 510.085 59.6104 501.496 54.3544 499.061 50.3804 497.266 47.6883 499.83 45.7654 503.035 40.6376 511.367 36.5354 520.341 31.9204 528.93 30.5103 531.622 34.6125 533.93 36.0226 531.366 38.7147 526.366 41.4068 521.367 44.0989 516.239 45.509 513.675 46.791 509.701 48.7139 507.65 49.3548 504.958 51.1496 504.189 54.2262 505.599 54.8672 506.752 55.2518 507.906 55.6364 509.188 59.4822 520.469 62.6871 532.007 66.1483 543.416 67.0457 546.108 70.5069 545.339 70.7633 542.775 70.8915 541.493 71.1479 540.083 71.2761 538.801 71.6607 535.596 66.9175 535.724 66.5329 538.673L66.5329 538.673Z" fill="#494949" transform="matrix(1.00057 0 0 1 42.5159 360.385)"/><path d="M108.709 533.417C109.35 533.93 109.863 534.571 110.504 535.083 111.786 534.186 112.939 533.16 114.221 532.263 103.325 520.213 90.8898 509.829 77.0448 501.368 75.6347 500.471 73.3272 501.625 73.4554 503.419 74.4809 517.393 76.4039 531.238 79.2241 544.954 79.8651 547.903 84.3519 546.621 83.7109 543.672 81.0189 530.34 79.0959 516.88 78.1986 503.291 77.0448 503.932 75.8911 504.701 74.6091 505.342 88.0695 513.675 100.12 523.674 110.76 535.468 112.683 537.647 115.503 534.955 114.478 532.648 113.708 530.981 112.683 530.084 111.016 529.315 108.324 528.161 105.889 532.263 108.709 533.417L108.709 533.417Z" fill="#494949" transform="matrix(1.00057 0 0 1 42.5159 360.385)"/><path d="M151.782 497.651C139.219 489.703 125.502 483.806 111.016 480.344 109.35 479.96 107.555 481.498 108.068 483.293 112.426 498.804 117.682 514.06 123.836 529.058 124.99 531.879 129.476 530.597 128.323 527.776 122.169 512.778 116.913 497.522 112.555 482.011 111.529 483.036 110.632 483.934 109.606 484.959 123.708 488.421 137.04 494.061 149.218 501.881 151.91 503.291 154.346 499.189 151.782 497.651L151.782 497.651Z" fill="#494949" transform="matrix(1.00057 0 0 1 42.5159 360.385)"/><path d="M153.833 432.912C143.45 432.784 133.45 434.451 123.708 438.04 122.426 438.553 121.272 440.22 122.297 441.501 131.399 454.065 141.911 465.474 153.833 475.473 156.141 477.396 159.474 474.063 157.166 472.14 145.629 462.397 135.245 451.372 126.4 439.066 125.887 440.22 125.502 441.373 124.99 442.527 134.348 439.066 143.834 437.399 153.833 437.656 156.91 437.656 156.91 433.041 153.833 432.912L153.833 432.912Z" fill="#494949" transform="matrix(1.00057 0 0 1 42.5159 360.385)"/><path d="M154.474 376.379C154.859 377.661 155.115 378.943 155.5 380.225 156.013 379.199 156.654 378.302 157.166 377.276 146.783 380.737 137.168 385.609 128.323 391.762 127.041 392.659 126.784 394.198 127.81 395.48 135.758 404.838 145.885 411.504 157.551 415.093 160.499 415.991 161.653 411.504 158.833 410.607 147.808 407.145 138.578 400.992 131.143 392.147 131.015 393.429 130.886 394.582 130.63 395.864 139.219 389.839 148.449 385.224 158.448 381.763 159.73 381.378 160.371 380.225 160.115 378.814 159.73 377.532 159.474 376.251 159.089 374.969 158.32 372.148 153.833 373.43 154.474 376.379L154.474 376.379Z" fill="#494949" transform="matrix(1.00057 0 0 1 42.5159 360.385)"/><path d="M154.474 319.717C148.577 323.05 142.937 326.639 137.424 330.485 134.22 332.793 130.886 335.1 132.297 339.459 133.579 343.561 138.578 346.509 141.911 348.817 147.295 352.535 153.064 355.355 159.089 357.662 161.91 358.688 163.191 354.201 160.371 353.176 156.397 351.637 152.551 349.971 148.962 347.791 146.783 346.509 139.347 342.792 138.706 340.484 136.527 333.049 151.91 326.767 156.91 323.947 159.474 322.281 157.038 318.178 154.474 319.717L154.474 319.717Z" fill="#494949" transform="matrix(1.00057 0 0 1 42.5159 360.385)"/><path d="M156.013 260.106C144.603 269.336 135.373 280.489 128.451 293.309 127.81 294.463 128.194 295.873 129.348 296.514 138.065 302.282 147.424 306.128 157.679 308.051 160.628 308.692 161.91 304.077 158.961 303.564 149.09 301.641 140.116 297.924 131.784 292.411 132.04 293.437 132.297 294.591 132.681 295.616 139.476 283.053 148.449 272.285 159.602 263.311 161.653 261.517 158.32 258.184 156.013 260.106L156.013 260.106Z" fill="#494949" transform="matrix(1.00057 0 0 1 42.5159 360.385)"/><path d="M157.423 161.653C153.833 164.986 148.321 166.396 143.834 168.319 139.347 170.242 134.86 172.165 130.374 174.216 129.092 174.729 128.835 177.036 129.861 177.934 138.963 185.113 148.321 191.779 158.32 197.676 160.884 199.214 163.32 195.112 160.756 193.574 151.141 187.805 142.039 181.523 133.322 174.601 133.194 175.883 133.066 177.036 132.809 178.318 138.065 176.011 143.321 173.703 148.577 171.524 152.808 169.729 157.295 168.191 160.884 164.986 162.935 162.935 159.602 159.602 157.423 161.653L157.423 161.653Z" fill="#494949" transform="matrix(1.00057 0 0 1 42.5159 360.385)"/><path d="M171.14 117.17C160.371 120.887 149.475 124.605 138.706 128.323 137.04 128.835 136.271 131.015 137.681 132.297 144.86 139.347 153.577 144.09 163.32 146.27 166.268 146.911 167.55 142.424 164.602 141.783 155.5 139.732 147.68 135.63 141.014 129.092 140.629 130.374 140.373 131.656 139.988 133.066 150.757 129.348 161.653 125.631 172.421 121.913 175.242 120.759 173.96 116.272 171.14 117.17L171.14 117.17Z" fill="#494949" transform="matrix(1.00057 0 0 1 42.5159 360.385)"/><path d="M195.881 85.2493C186.523 80.7625 177.165 76.4039 167.806 71.9171 166.268 71.2761 164.089 72.0452 164.217 73.9682 165.243 88.0695 169.986 101.274 178.318 112.683 180.113 115.119 184.215 112.811 182.421 110.247 174.601 99.4788 169.986 87.1722 168.96 73.84 167.806 74.4809 166.653 75.2501 165.371 75.8911 174.729 80.3779 184.087 84.7365 193.445 89.2233 196.137 90.6334 198.573 86.5312 195.881 85.2493L195.881 85.2493Z" fill="#494949" transform="matrix(1.00057 0 0 1 42.5159 360.385)"/><path d="M231.647 54.098C230.75 54.9954 229.853 55.8928 228.955 56.6619 230.109 56.6619 231.134 56.6619 232.288 56.6619 224.725 47.5601 216.008 39.6121 206.393 32.6896 205.239 31.7922 203.188 32.6896 202.932 34.0997 200.496 47.9447 200.881 61.6615 204.214 75.2501 204.983 78.1986 209.47 76.9166 208.7 73.9682 205.496 61.1487 205.111 48.3293 207.419 35.2535 206.265 35.7662 205.111 36.1508 203.957 36.6636 213.187 43.3297 221.52 51.1496 228.827 59.8668 229.596 60.8923 231.263 60.7641 232.16 59.8668 233.057 58.9694 233.955 58.0721 234.852 57.3029 237.16 55.38 233.827 52.0469 231.647 54.098L231.647 54.098Z" fill="#494949" transform="matrix(1.00057 0 0 1 42.5159 360.385)"/><path d="M269.977 35.638C265.362 26.2799 260.619 16.9217 256.004 7.56347 255.235 6.02514 252.671 6.02514 251.902 7.56347 245.62 20.2547 241.134 33.5869 238.826 47.5601 238.313 50.5086 242.928 51.7905 243.313 48.8421 245.62 35.2535 249.723 22.3058 255.876 9.99916 254.466 9.99916 253.184 9.99916 251.774 9.99916 256.389 19.3574 261.132 28.7155 265.747 38.0737 267.285 40.7658 271.259 38.3301 269.977 35.638L269.977 35.638Z" fill="#494949" transform="matrix(1.00057 0 0 1 42.5159 360.385)"/><path d="M321.383 28.2028C316.768 17.9472 310.487 8.84541 302.795 0.640972 302.026-0.256389 300.231-0.384583 299.462 0.640972 291.258 10.5119 284.848 21.4085 280.105 33.3305 278.951 36.1508 283.566 37.4328 284.592 34.6125 288.95 23.4596 295.103 13.204 302.667 3.97403 301.513 3.97403 300.488 3.97403 299.334 3.97403 306.769 11.7939 312.666 20.6393 317.153 30.5103 318.563 33.3305 322.665 31.023 321.383 28.2028L321.383 28.2028Z" fill="#494949" transform="matrix(1.00057 0 0 1 42.5159 360.385)"/><path d="M367.405 33.8433C367.533 33.8433 367.79 33.7151 367.918 33.7151 367.021 33.3305 366.123 32.946 365.226 32.6896 365.226 32.4332 365.098 32.0486 365.098 31.7922 365.995 31.4076 366.892 31.023 367.79 30.7667 365.482 29.8693 363.175 19.9983 362.277 17.6908 360.611 13.4604 358.944 9.23 357.278 4.99958 356.765 3.71764 355.227 2.69208 353.817 3.58944 344.202 9.74277 336.767 18.2036 332.023 28.7155 330.742 31.4076 334.844 33.8433 336.126 31.1512 340.484 21.4085 347.15 13.4604 356.252 7.69166 355.098 7.17889 353.945 6.7943 352.791 6.28153 355.355 12.8194 357.919 19.3574 360.483 25.8953 362.021 29.7411 362.534 33.5869 366.508 35.2535 367.533 35.638 368.559 34.9971 369.2 34.2279 370.225 32.8178 369.969 31.9204 369.328 30.3821 368.943 29.4847 367.533 29.1001 366.636 29.3565 366.508 29.3565 366.251 29.4847 366.123 29.4847 363.175 29.9975 364.457 34.4843 367.405 33.8433L367.405 33.8433Z" fill="#494949" transform="matrix(1.00057 0 0 1 42.5159 360.385)"/><path d="M415.35 48.3293C414.324 36.5354 412.145 24.9979 408.94 13.5886 408.556 12.3067 406.761 11.2811 405.479 12.1785 396.121 18.8446 387.532 26.408 379.712 34.8689 377.661 37.0482 380.994 40.3812 383.045 38.2019 390.608 30.1257 398.813 22.8186 407.915 16.2807 406.761 15.7679 405.607 15.3833 404.453 14.8706 407.658 25.8953 409.709 37.0482 410.735 48.3293 410.991 51.4059 415.734 51.4059 415.35 48.3293L415.35 48.3293Z" fill="#494949" transform="matrix(1.00057 0 0 1 42.5159 360.385)"/><path d="M157.295 207.931C147.68 213.956 137.809 219.469 127.682 224.725 126.4 225.366 126.143 227.417 127.169 228.442 136.014 236.006 146.142 241.518 157.423 244.723 160.371 245.62 161.653 241.005 158.705 240.236 148.193 237.16 138.835 232.288 130.63 225.109 130.502 226.391 130.374 227.545 130.117 228.827 140.245 223.699 150.116 218.059 159.73 212.034 162.166 210.495 159.858 206.393 157.295 207.931L157.295 207.931Z" fill="#494949" transform="matrix(1.00057 0 0 1 42.5159 360.385)"/><path d="M287.925 576.106C289.976 572.901 289.976 568.67 288.053 565.465 286.514 562.902 282.412 565.209 283.951 567.901 285.104 569.824 285.104 571.875 283.822 573.798 282.156 576.234 286.258 578.541 287.925 576.106L287.925 576.106Z" fill="#494949" transform="matrix(1.00057 0 0 1 42.5159 360.385)"/></g></svg>